<svg width="148" height="90" viewBox="0 0 148 90" fill="none" xmlns="http://www.w3.org/2000/svg">
<path d="M147.215 33.7295C147.215 46.2982 138.978 51.9013 136.797 56.9185C134.75 61.6295 135.949 69.5836 127.818 76.1862C115.504 86.1847 97.6426 82.6945 80.736 82.6945C66.5707 82.6945 51.0583 93.2163 38.7828 88.1181C28.4509 83.8272 27.2948 77.6704 17.6659 70.6211C6.46106 62.4182 0 59.2885 0 50.0672C0 34.2062 3.61261 37.9443 12.2302 23.189C26.5638 -1.35348 42.7271 6.98393 67.6838 6.98393C86.3943 6.98393 105.371 -7.58087 117.329 5.35607C124.658 13.2855 130.003 12.6486 136.797 16.3377C141.014 18.6271 147.215 23.3888 147.215 33.7295Z" fill="#BDFD64"/>
<path d="M24.652 39.5125V37.7845H26.2C26.384 37.7845 26.552 37.7485 26.704 37.6765C26.864 37.5965 26.992 37.4805 27.088 37.3285C27.184 37.1685 27.232 36.9725 27.232 36.7405C27.232 36.5085 27.184 36.3165 27.088 36.1645C26.992 36.0045 26.864 35.8885 26.704 35.8165C26.552 35.7365 26.384 35.6965 26.2 35.6965H24.652V33.9685H26.668C27.22 33.9685 27.716 34.0805 28.156 34.3045C28.604 34.5205 28.956 34.8365 29.212 35.2525C29.476 35.6605 29.608 36.1565 29.608 36.7405C29.608 37.3165 29.476 37.8125 29.212 38.2285C28.956 38.6445 28.604 38.9645 28.156 39.1885C27.716 39.4045 27.22 39.5125 26.668 39.5125H24.652ZM22.708 42.5125V33.9685H25.108V42.5125H22.708ZM34.7601 42.6805C34.0881 42.6805 33.4681 42.5685 32.9001 42.3445C32.3401 42.1205 31.8481 41.8085 31.4241 41.4085C31.0081 41.0085 30.6841 40.5365 30.4521 39.9925C30.2201 39.4485 30.1041 38.8605 30.1041 38.2285C30.1041 37.5885 30.2161 37.0005 30.4401 36.4645C30.6721 35.9285 30.9961 35.4605 31.4121 35.0605C31.8281 34.6605 32.3161 34.3525 32.8761 34.1365C33.4441 33.9125 34.0641 33.8005 34.7361 33.8005C35.4081 33.8005 36.0241 33.9125 36.5841 34.1365C37.1521 34.3525 37.6441 34.6605 38.0601 35.0605C38.4761 35.4605 38.7961 35.9325 39.0201 36.4765C39.2521 37.0125 39.3681 37.6005 39.3681 38.2405C39.3681 38.8725 39.2521 39.4605 39.0201 40.0045C38.7961 40.5405 38.4761 41.0125 38.0601 41.4205C37.6441 41.8205 37.1561 42.1325 36.5961 42.3565C36.0361 42.5725 35.4241 42.6805 34.7601 42.6805ZM34.7361 40.5685C35.1841 40.5685 35.5721 40.4725 35.9001 40.2805C36.2281 40.0885 36.4801 39.8165 36.6561 39.4645C36.8321 39.1125 36.9201 38.7005 36.9201 38.2285C36.9201 37.8765 36.8681 37.5605 36.7641 37.2805C36.6681 36.9925 36.5241 36.7485 36.3321 36.5485C36.1401 36.3405 35.9081 36.1845 35.6361 36.0805C35.3721 35.9685 35.0721 35.9125 34.7361 35.9125C34.2881 35.9125 33.9001 36.0085 33.5721 36.2005C33.2441 36.3845 32.9921 36.6525 32.8161 37.0045C32.6401 37.3485 32.5521 37.7565 32.5521 38.2285C32.5521 38.5885 32.6001 38.9125 32.6961 39.2005C32.8001 39.4885 32.9481 39.7365 33.1401 39.9445C33.3321 40.1445 33.5601 40.3005 33.8241 40.4125C34.0961 40.5165 34.4001 40.5685 34.7361 40.5685ZM42.3004 39.1045V37.4485H43.7524C44.0804 37.4485 44.3284 37.3685 44.4964 37.2085C44.6724 37.0485 44.7604 36.8365 44.7604 36.5725C44.7604 36.3085 44.6724 36.0965 44.4964 35.9365C44.3284 35.7765 44.0804 35.6965 43.7524 35.6965H42.3004V33.9685H44.1364C44.7284 33.9685 45.2484 34.0765 45.6964 34.2925C46.1444 34.5085 46.4964 34.8085 46.7524 35.1925C47.0084 35.5765 47.1364 36.0245 47.1364 36.5365C47.1364 37.0485 47.0044 37.4965 46.7404 37.8805C46.4844 38.2645 46.1244 38.5645 45.6604 38.7805C45.1964 38.9965 44.6484 39.1045 44.0164 39.1045H42.3004ZM40.3564 42.5125V33.9685H42.7564V42.5125H40.3564ZM44.9644 42.5125L42.6364 38.8645L44.7964 38.3965L47.6884 42.5125H44.9644ZM50.166 42.5125V33.9685H52.566V42.5125H50.166ZM47.61 36.0085V33.9685H55.134V36.0085H47.61ZM54.4626 42.5125L57.7146 33.9685H60.1626L63.3786 42.5125H60.8826L58.4946 35.2525H59.3586L56.9106 42.5125H54.4626ZM56.5746 41.0725V39.2005H61.3506V41.0725H56.5746ZM64.0635 42.5125V33.9685H66.4635V42.5125H64.0635ZM66.0195 42.5125V40.4725H70.0155V42.5125H66.0195ZM74.6012 42.5125V40.4725H76.5932C77.0412 40.4725 77.4292 40.3925 77.7572 40.2325C78.0852 40.0645 78.3372 39.8125 78.5132 39.4765C78.6892 39.1405 78.7772 38.7245 78.7772 38.2285C78.7772 37.7325 78.6852 37.3205 78.5012 36.9925C78.3252 36.6645 78.0732 36.4205 77.7452 36.2605C77.4252 36.0925 77.0412 36.0085 76.5932 36.0085H74.4812V33.9685H76.5932C77.2652 33.9685 77.8812 34.0685 78.4412 34.2685C79.0092 34.4685 79.5012 34.7565 79.9172 35.1325C80.3332 35.5085 80.6532 35.9605 80.8772 36.4885C81.1092 37.0085 81.2252 37.5925 81.2252 38.2405C81.2252 38.8885 81.1092 39.4765 80.8772 40.0045C80.6532 40.5245 80.3332 40.9725 79.9172 41.3485C79.5012 41.7245 79.0132 42.0125 78.4532 42.2125C77.8932 42.4125 77.2812 42.5125 76.6172 42.5125H74.6012ZM72.9932 42.5125V33.9685H75.3932V42.5125H72.9932ZM82.2041 42.5125V33.9685H84.6041V42.5125H82.2041ZM84.1481 42.5125V40.5205H88.7321V42.5125H84.1481ZM84.1481 39.1285V37.1845H88.2881V39.1285H84.1481ZM84.1481 35.9605V33.9685H88.6601V35.9605H84.1481ZM22.708 57.5125V48.9685H24.448L27.628 53.6245H26.872L30.04 48.9685H31.78V57.5125H29.404V52.9045L29.752 53.0005L28.012 55.4965H26.476L24.748 53.0005L25.084 52.9045V57.5125H22.708ZM33.1963 57.5125V48.9685H35.5963V57.5125H33.1963ZM37.0166 57.5125V48.9685H38.6966L39.4166 50.7685V57.5125H37.0166ZM42.8966 57.5125L37.9406 51.2845L38.6966 48.9685L43.6526 55.1965L42.8966 57.5125ZM42.8966 57.5125L42.2966 55.6165V48.9685H44.6966V57.5125H42.8966ZM46.1103 57.5125V48.9685H48.5103V57.5125H46.1103ZM51.1111 57.5125L54.3631 48.9685H56.8111L60.0271 57.5125H57.5311L55.1431 50.2525H56.0071L53.5591 57.5125H51.1111ZM53.2231 56.0725V54.2005H57.9991V56.0725H53.2231ZM62.2707 57.5125L59.1387 48.9685H61.6827L63.9987 55.8685H62.8707L65.2227 48.9685H67.7307L64.5507 57.5125H62.2707ZM68.5283 57.5125V48.9685H70.9283V57.5125H68.5283ZM70.4723 57.5125V55.5205H75.0563V57.5125H70.4723ZM70.4723 54.1285V52.1845H74.6123V54.1285H70.4723ZM70.4723 50.9605V48.9685H74.9843V50.9605H70.4723ZM76.1924 57.5125V48.9685H77.8724L78.5924 50.7685V57.5125H76.1924ZM82.0724 57.5125L77.1164 51.2845L77.8724 48.9685L82.8284 55.1965L82.0724 57.5125ZM82.0724 57.5125L81.4724 55.6165V48.9685H83.8724V57.5125H82.0724ZM87.3261 57.5125V48.9685H89.7261V57.5125H87.3261ZM84.7701 51.0085V48.9685H92.2941V51.0085H84.7701ZM96.7843 57.6565C96.0323 57.6565 95.3763 57.5045 94.8163 57.2005C94.2563 56.8885 93.8203 56.4605 93.5083 55.9165C93.1963 55.3725 93.0403 54.7485 93.0403 54.0445V48.9685H95.4403V54.2605C95.4403 54.5325 95.5003 54.7645 95.6203 54.9565C95.7403 55.1485 95.9003 55.2965 96.1003 55.4005C96.3083 55.4965 96.5363 55.5445 96.7843 55.5445C97.0403 55.5445 97.2643 55.4965 97.4563 55.4005C97.6563 55.2965 97.8123 55.1525 97.9243 54.9685C98.0363 54.7765 98.0923 54.5445 98.0923 54.2725V48.9685H100.504V54.0565C100.504 54.7605 100.348 55.3845 100.036 55.9285C99.7323 56.4645 99.3003 56.8885 98.7403 57.2005C98.1883 57.5045 97.5363 57.6565 96.7843 57.6565ZM103.707 54.1045V52.4485H105.159C105.487 52.4485 105.735 52.3685 105.903 52.2085C106.079 52.0485 106.167 51.8365 106.167 51.5725C106.167 51.3085 106.079 51.0965 105.903 50.9365C105.735 50.7765 105.487 50.6965 105.159 50.6965H103.707V48.9685H105.543C106.135 48.9685 106.655 49.0765 107.103 49.2925C107.551 49.5085 107.903 49.8085 108.159 50.1925C108.415 50.5765 108.543 51.0245 108.543 51.5365C108.543 52.0485 108.411 52.4965 108.147 52.8805C107.891 53.2645 107.531 53.5645 107.067 53.7805C106.603 53.9965 106.055 54.1045 105.423 54.1045H103.707ZM101.763 57.5125V48.9685H104.163V57.5125H101.763ZM106.371 57.5125L104.043 53.8645L106.203 53.3965L109.095 57.5125H106.371ZM108.791 57.5125L112.043 48.9685H114.491L117.707 57.5125H115.211L112.823 50.2525H113.687L111.239 57.5125H108.791ZM110.903 56.0725V54.2005H115.679V56.0725H110.903ZM121.023 57.6565C120.295 57.6565 119.659 57.5525 119.115 57.3445C118.579 57.1285 118.083 56.7885 117.627 56.3245L119.127 54.8245C119.439 55.1205 119.767 55.3485 120.111 55.5085C120.455 55.6605 120.823 55.7365 121.215 55.7365C121.543 55.7365 121.791 55.6885 121.959 55.5925C122.127 55.4885 122.211 55.3485 122.211 55.1725C122.211 54.9965 122.139 54.8525 121.995 54.7405C121.851 54.6205 121.659 54.5165 121.419 54.4285C121.187 54.3325 120.927 54.2365 120.639 54.1405C120.359 54.0445 120.079 53.9285 119.799 53.7925C119.519 53.6565 119.259 53.4925 119.019 53.3005C118.787 53.1005 118.599 52.8565 118.455 52.5685C118.311 52.2725 118.239 51.9125 118.239 51.4885C118.239 50.9365 118.371 50.4605 118.635 50.0605C118.899 49.6605 119.271 49.3565 119.751 49.1485C120.231 48.9325 120.795 48.8245 121.443 48.8245C122.083 48.8245 122.675 48.9285 123.219 49.1365C123.771 49.3365 124.227 49.6245 124.587 50.0005L123.075 51.5005C122.811 51.2445 122.547 51.0565 122.283 50.9365C122.019 50.8085 121.731 50.7445 121.419 50.7445C121.171 50.7445 120.971 50.7845 120.819 50.8645C120.675 50.9445 120.603 51.0645 120.603 51.2245C120.603 51.3925 120.675 51.5325 120.819 51.6445C120.963 51.7485 121.151 51.8445 121.383 51.9325C121.623 52.0205 121.883 52.1125 122.163 52.2085C122.451 52.3045 122.735 52.4205 123.015 52.5565C123.295 52.6845 123.551 52.8525 123.783 53.0605C124.023 53.2605 124.215 53.5125 124.359 53.8165C124.503 54.1205 124.575 54.4885 124.575 54.9205C124.575 55.7925 124.263 56.4685 123.639 56.9485C123.023 57.4205 122.151 57.6565 121.023 57.6565Z" fill="#3469FF"/>
<path d="M106.72 29.6525C106.385 25.9635 104.127 22.9601 101.16 22.0824C104.127 21.2048 106.385 18.2014 106.72 14.5125C107.055 18.2014 109.313 21.2048 112.279 22.0824C109.312 22.9601 107.055 25.9635 106.72 29.6525Z" fill="#3469FF"/>
<path d="M100.839 39.8266C100.547 36.6161 98.5818 34.0022 96 33.2384C98.5821 32.4745 100.547 29.8607 100.839 26.6501C101.13 29.8607 103.095 32.4745 105.677 33.2384C103.095 34.0022 101.13 36.6161 100.839 39.8266Z" fill="#3469FF"/>
<path d="M112.773 35.4345C112.578 33.2941 111.268 31.5515 109.547 31.0423C111.268 30.5331 112.578 28.7905 112.773 26.6501C112.967 28.7905 114.277 30.5331 115.998 31.0423C114.277 31.5515 112.967 33.2941 112.773 35.4345Z" fill="#3469FF"/>
</svg>
