<svg width="32" height="32" viewBox="0 0 32 32" fill="none" xmlns="http://www.w3.org/2000/svg">
<g id="supervisor_account">
<mask id="mask0_624_401" style="mask-type:alpha" maskUnits="userSpaceOnUse" x="0" y="0" width="32" height="32">
<rect id="Bounding box" width="32" height="32" fill="#D9D9D9"/>
</mask>
<g mask="url(#mask0_624_401)">
<path id="supervisor_account_2" d="M22.666 19.9999C21.7327 19.9999 20.9438 19.6777 20.2993 19.0333C19.6549 18.3888 19.3327 17.5999 19.3327 16.6666C19.3327 15.7333 19.6549 14.9444 20.2993 14.2999C20.9438 13.6555 21.7327 13.3333 22.666 13.3333C23.5993 13.3333 24.3882 13.6555 25.0327 14.2999C25.6771 14.9444 25.9993 15.7333 25.9993 16.6666C25.9993 17.5999 25.6771 18.3888 25.0327 19.0333C24.3882 19.6777 23.5993 19.9999 22.666 19.9999ZM15.9993 26.6666V24.7999C15.9993 24.2666 16.1382 23.7721 16.416 23.3166C16.6938 22.861 17.0882 22.5333 17.5993 22.3333C18.3993 21.9999 19.2271 21.7499 20.0827 21.5833C20.9382 21.4166 21.7993 21.3333 22.666 21.3333C23.5327 21.3333 24.3938 21.4166 25.2493 21.5833C26.1049 21.7499 26.9327 21.9999 27.7327 22.3333C28.2438 22.5333 28.6382 22.861 28.916 23.3166C29.1938 23.7721 29.3327 24.2666 29.3327 24.7999V26.6666H15.9993ZM13.3327 15.9999C11.866 15.9999 10.6105 15.4777 9.56602 14.4333C8.52157 13.3888 7.99935 12.1333 7.99935 10.6666C7.99935 9.19992 8.52157 7.94436 9.56602 6.89992C10.6105 5.85547 11.866 5.33325 13.3327 5.33325C14.7993 5.33325 16.0549 5.85547 17.0993 6.89992C18.1438 7.94436 18.666 9.19992 18.666 10.6666C18.666 12.1333 18.1438 13.3888 17.0993 14.4333C16.0549 15.4777 14.7993 15.9999 13.3327 15.9999ZM2.66602 26.6666V22.9333C2.66602 22.1777 2.8549 21.4833 3.23268 20.8499C3.61046 20.2166 4.13268 19.7333 4.79935 19.3999C6.13268 18.7333 7.51602 18.2221 8.94935 17.8666C10.3827 17.511 11.8438 17.3333 13.3327 17.3333C14.1105 17.3333 14.8882 17.3999 15.666 17.5333C16.4438 17.6666 17.2216 17.8221 17.9993 17.9999L15.7327 20.2666C15.3327 20.1555 14.9327 20.0833 14.5327 20.0499C14.1327 20.0166 13.7327 19.9999 13.3327 19.9999C12.0438 19.9999 10.7827 20.1555 9.54935 20.4666C8.31602 20.7777 7.13268 21.2221 5.99935 21.7999C5.77713 21.911 5.61046 22.0666 5.49935 22.2666C5.38824 22.4666 5.33268 22.6888 5.33268 22.9333V23.9999H13.3327V26.6666H2.66602ZM13.3327 13.3333C14.066 13.3333 14.6938 13.0721 15.216 12.5499C15.7382 12.0277 15.9993 11.3999 15.9993 10.6666C15.9993 9.93325 15.7382 9.30547 15.216 8.78325C14.6938 8.26103 14.066 7.99992 13.3327 7.99992C12.5993 7.99992 11.9716 8.26103 11.4493 8.78325C10.9271 9.30547 10.666 9.93325 10.666 10.6666C10.666 11.3999 10.9271 12.0277 11.4493 12.5499C11.9716 13.0721 12.5993 13.3333 13.3327 13.3333Z" fill="#1C1B1F"/>
</g>
</g>
</svg>
